<svg width="26" height="16" viewBox="0 0 26 16" fill="none" xmlns="http://www.w3.org/2000/svg">
<g opacity="0.5">
<path d="M24.9439 7.51173C24.7196 7.20495 19.3762 0 12.5516 0C5.72703 0 0.383319 7.20495 0.159299 7.51144C-0.0530998 7.80248 -0.0530998 8.19722 0.159299 8.48827C0.383319 8.79505 5.72703 16 12.5516 16C19.3762 16 24.7196 8.795 24.9439 8.48851C25.1566 8.19752 25.1566 7.80248 24.9439 7.51173ZM12.5516 14.3448C7.52458 14.3448 3.17064 9.56277 1.88178 7.99944C3.16897 6.43473 7.51379 1.65516 12.5516 1.65516C17.5784 1.65516 21.932 6.4364 23.2214 8.00056C21.9342 9.56522 17.5894 14.3448 12.5516 14.3448Z" fill="#737A83"/>
<path d="M12.5515 3.03418C9.81353 3.03418 7.58594 5.26177 7.58594 7.99972C7.58594 10.7377 9.81353 12.9653 12.5515 12.9653C15.2894 12.9653 17.517 10.7377 17.517 7.99972C17.517 5.26177 15.2894 3.03418 12.5515 3.03418ZM12.5515 11.31C10.7261 11.31 9.24115 9.82507 9.24115 7.99972C9.24115 6.17437 10.7261 4.68939 12.5515 4.68939C14.3768 4.68939 15.8618 6.17437 15.8618 7.99972C15.8618 9.82507 14.3769 11.31 12.5515 11.31Z" fill="#737A83"/>
</g>
</svg>
