<svg width="29" height="15" viewBox="0 0 29 15" fill="none" xmlns="http://www.w3.org/2000/svg">
<g opacity="0.5">
<path d="M1.6593 1.48806C1.4469 1.19702 1.4469 0.802274 1.6593 0.51123L3.38178 0.999229C4.67064 2.56256 9.02458 7.34463 14.0516 7.34463C19.0894 7.34463 23.4342 2.56501 24.7214 1.00036L26.4439 0.511524C26.6566 0.802273 26.6566 1.19731 26.4439 1.48831C26.2196 1.79479 20.8762 8.99979 14.0516 8.99979C7.22703 8.99979 1.88332 1.79484 1.6593 1.48806Z" fill="#737A83"/>
<path d="M4.5 4L1 7.5M9.5 7L6.5 12M15 8V13.5M19.5 7L22.5 11.5M24 4L27.5 7.5" stroke="#737A83" stroke-width="1.4" stroke-linecap="round"/>
</g>
</svg>
